<svg enable-background="new 0 0 509.33 76.67" viewBox="0 0 509.33 76.67" xmlns="http://www.w3.org/2000/svg"><g fill="#cbd3db"><path d="m34.28 64.74v-.52h-2.41v-3.49l-20.62-.01v3.49h-2.41v.52h1.11v1.26h-1.11v.52h1.11v1.26h-1.11v.52l25.44.01v-.52h-1.07v-1.26h1.07v-.52h-1.07v-1.26zm-3.13-3.31v2.78h-4.19v-2.77zm0 3.31v1.26h-1.73v-1.26zm-5.02-3.3v2.77h-4.19v-2.76zm0 3.29v1.26h-.5v-1.26zm-5.02 1.27h-3.06v-1.26h3.06zm0-4.55v2.76h-4.19v-2.75zm-9.21.01 4.19-.01v2.75h-4.19zm4.19 3.27v1.26h-1.83v-1.26zm-5.62 0h.78v1.26h-.78zm0 1.78h.78v1.26h-.78zm3.27 1.27h-1.84v-1.26h1.84zm0-1.79h-1.84v-1.26h1.84zm.52.53h1.83v1.26h-1.83zm3.27 1.26h-.61v-1.26h.61zm0-1.79h-.61v-1.26h.61zm.52.53h3.06v1.26h-3.06zm7.06 1.26h-3.17v-1.26h3.17zm0-1.78h-3.17v-1.26h3.17zm.52.52h.5v1.26h-.5zm3.27 1.26h-1.94v-1.26h1.94zm0-1.78h-1.94v-1.26h1.94zm.52.52h1.73v1.26h-1.73zm3.26 1.26h-.82v-1.26h.82zm.01-1.78h-.82v-1.26h.82z"/><path d="m29.25 49.89v-4.24h-15.37v4.24zm-3.72-3.56h3.02v2.72h-3.02zm-3.61 0h3.02v2.72h-3.02zm-3.62 0h3.02v2.72h-3.02zm-3.62 0h3.02v2.72h-3.02z"/><path d="m31.05 50.97v-.39l-18.96-.01v.39h.82v.94h-.82v.39h.82v.94h-.82v.39l18.96.01v-.39h-.8v-.94h.8v-.39h-.8v-.94zm-9.67.94h-2.44v-.94h2.44zm.39-.94h2.44v.94h-2.44zm-3.21.94h-2.44v-.94h2.44zm0 .39v.94h-2.44v-.94zm.39 0h2.44v.94h-2.44zm2.82 0h2.44v.94h-2.44zm2.83 0h2.44v.94h-2.44zm0-.39v-.94h2.44v.94zm-11.3-.94h2.44v.94h-2.44zm0 1.33h2.44v.94h-2.44zm16.56.95h-2.44v-.94h2.44zm0-1.33h-2.44v-.94h2.44z"/><path d="m7.75 58.54h27.63v1.38h-27.63z"/><path d="m30.73 54.66h-18.33c-3.17.51-6.24.95-7.47.95 0 1.41 7.45 2.09 16.64 2.09s16.64-.67 16.64-2.08c-1.23 0-4.3-.44-7.48-.96z"/><path d="m26.56 36.92v-3.14h-9.98v3.14zm-2.49-2.61h1.92v2.11h-1.92zm-2.3 0h1.92v2.11h-1.92zm-2.31 0h1.92v2.11h-1.92zm-2.3 0h1.92v2.11h-1.92z"/><path d="m29.24 37.92v-.32h-15.35v.32h.67v.76h-.67v.32h.67v.76h-.67v.32l15.35.01v-.32h-.65v-.76h.65v-.32h-.65v-.76zm-7.82.76h-1.97v-.76h1.97zm.32-.76h1.97v.76h-1.97zm-2.61.76h-1.97v-.76h1.97zm0 .32v.76h-1.97v-.76zm.32 0h1.97v.76h-1.97zm2.29 0h1.97v.76h-1.97zm2.28 0h1.97v.76h-1.97zm0-.32v-.76h1.97v.76zm-9.14-.76h1.97v.76h-1.97zm0 1.07h1.97v.76h-1.97zm13.4.77h-1.97v-.76h1.97zm0-1.08h-1.97v-.76h1.97z"/><path d="m12.03 19.97h19.09v1.28h-19.09z"/><path d="m20.42 15.17v.67h2.31v-.67h-.89v-.41c.29-.05.5-.18.5-.33s-.21-.28-.5-.33v-.33c.29-.05.5-.18.5-.33s-.21-.28-.5-.33v-.33c.29-.05.5-.18.5-.33s-.21-.28-.5-.33v-.33c.29-.05.5-.18.5-.33s-.21-.28-.5-.33v-.33c.29-.05.5-.18.5-.33s-.21-.28-.5-.33v-.33c.29-.05.5-.18.5-.33s-.21-.28-.5-.33v-.33c.29-.05.5-.18.5-.33s-.21-.28-.5-.33v-.33c.29-.05.5-.18.5-.33s-.21-.55-.5-.6v-1.01c0-.08-.12-.14-.27-.14s-.27.06-.27.14v1.01c-.29.05-.5.45-.5.6s.21.28.5.33v.33c-.29.05-.5.18-.5.33s.21.28.5.33v.33c-.29.05-.5.18-.5.33s.21.28.5.33v.33c-.29.05-.5.18-.5.33s.21.28.5.33v.33c-.29.05-.5.18-.5.33s.21.28.5.33v.33c-.29.05-.5.18-.5.33s.21.28.5.33v.33c-.29.05-.5.18-.5.33s.21.28.5.33v.33c-.29.05-.5.18-.5.33s.21.28.5.33v.41z"/><path d="m22.6 16.42h-2.06c-2.51.45-8.84 1.57-10.47 1.57 0 .97 5.15 1.44 11.5 1.45 6.35 0 11.5.17 11.5-.81-1.63 0-7.96-1.75-10.47-2.21z"/><path d="m10.39 32.01h22.37v1.12h-22.37z"/><path d="m28.99 29.11-14.84-.01c-2.57.41-5.05.5-6.05.5 0 1.14 6.03 1.96 13.47 1.96s13.47-.54 13.47-1.68c-.99 0-3.48-.35-6.05-.77z"/><path d="m10.38 43.89h22.37v1.12h-22.37z"/><path d="m5.34 68.99h32.44v1.12h-32.44z"/><path d="m3.39 70.77h36.34v1.12h-36.34z"/><path d="m28.99 40.76h-14.85c-2.57.41-5.05.5-6.05.5 0 1.14 6.03 1.96 13.47 1.96s13.47-.54 13.47-1.68c-.99-.01-3.47-.36-6.04-.78z"/><path d="m29.25 26.35v-.32h-15.35v.32h.67v.76h-.67v.32h.67v.76h-.67v.32l15.35.01v-.32h-.65v-.76h.65v-.32h-.65v-.76zm-7.83.76h-1.97v-.76h1.97zm.32-.76h1.97v.76h-1.97zm-2.6.76h-1.97v-.76h1.97zm0 .32v.76h-1.97v-.76zm.31 0h1.97v.76h-1.97zm2.29 0h1.97v.76h-1.97zm2.29 0h1.97v.76h-1.97zm0-.32v-.76h1.97v.76zm-9.15-.76h1.97v.76h-1.97zm0 1.08h1.97v.76h-1.97zm13.4.76h-1.97v-.76h1.97zm0-1.08h-1.97v-.76h1.97z"/><path d="m26.56 25.44v-3.61h-9.98v3.62h9.98zm-2.48-2.84h1.92v2.11h-1.92zm-2.3 0h1.92v2.11h-1.92zm-2.3-.01h1.92v2.11h-1.92zm-2.31 0h1.92v2.11h-1.92z"/><path d="m460.95 50.77h-15.29c-2.87 2.2-7.43 3.66-7.43 3.66h30.15s-4.56-1.46-7.43-3.66z"/><path d="m437.94 56.57 4.89 1.73 21.01.01 4.9-1.74z"/><path d="m437.65 55.8h31.09c.19 0 .35-.15.35-.35 0-.19-.15-.35-.35-.35h-31.09c-.19 0-.35.15-.35.35 0 .19.16.35.35.35z"/><path d="m445.18 49.2h16.19v.9h-16.19z"/><path d="m455.95 46.39h3.17v2.32h-3.17z"/><path d="m451.92 46.39h3.75v2.32h-3.75z"/><path d="m447.75 46.39h3.89v2.32h-3.89z"/><path d="m458.8 40.74h-11.05c-2.07 1.59-5.37 2.65-5.37 2.65h21.78s-3.29-1.06-5.36-2.65z"/><path d="m442.17 44.62 3.54 1.25h15.17l3.54-1.25z"/><path d="m441.96 44.21h22.46c.14 0 .25-.11.25-.25s-.11-.25-.25-.25h-22.46c-.14 0-.25.11-.25.25s.11.25.25.25z"/><path d="m447.4 39.59h11.7v.65h-11.7z"/><path d="m453.74 30.06h-.97c-1.76 2.97-7.72 5.85-7.72 5.85h16.41s-5.96-2.87-7.72-5.85z"/><path d="m444.93 36.61h16.52c.1 0 .18-.08.18-.18s-.08-.18-.18-.18h-16.52c-.1 0-.18.08-.18.18s.08.18.18.18z"/><path d="m452.98 29.25c-.12.09-.19.22-.19.37v.08h.95v-.08c0-.15-.08-.29-.19-.37.25-.11.43-.36.43-.65 0-.39-.32-.71-.71-.71s-.71.32-.71.71c-.01.29.17.54.42.65z"/><path d="m455.19 37.17h2.29v1.98h-2.29z"/><path d="m452.27 37.17h2.71v1.98h-2.71z"/><path d="m449.26 37.17h2.81v1.98h-2.81z"/><path d="m449.24 59.17h8.07v2.14h-8.07z"/><path d="m457.95 59.17h4.38v2.14h-4.38z"/><path d="m444.62 59.17h3.96v2.14h-3.96z"/><path d="m442.9 67.28h20.75v-5.22h-20.75zm1.23-.25h-.97v-3.1h.97zm1.25 0h-.93v-3.1h.93zm1.33 0h-.97v-3.1h.97zm1.14 0h-.93v-3.1h.93zm4.72 0h-.93v-3.1h.93zm1.32 0h-.97v-3.1h.97zm1.15 0h-.93v-3.1h.93zm4.54 0h-.93v-3.1h.93zm1.33 0h-.97v-3.1h.97zm1.14 0h-.93v-3.1h.93zm1.23 0h-.93v-3.1h.93zm-5.6-4.44h5.79v1.11h-5.79zm-.32 1.34h.97v3.1h-.97zm-1.09 3.1h-.93v-3.1h.93zm-5.9-4.44h5.79v1.11h-5.79zm-.02 1.34h.97v3.1h-.97zm-1.27 3.1h-.93v-3.1h.93zm-6.01-4.45h5.79v1.11h-5.79z"/><path d="m440.29 67.66h26.28v.95h-26.28z"/><path d="m438.7 69.2h29.45v.93h-29.45z"/><path d="m437.37 70.69h32.1v.93h-32.1z"/><path d="m268.01 35.19h-10.44v-1.66h10.44zm-9.99 9.48v-8.53h9.99v8.53zm5.88-1.97h1.36v-3.74h-1.36zm-1.84 0h1.36v-3.74h-1.36zm-1.84 0h1.36v-3.74h-1.36zm2.44 8.86h5.57v-1.7h-5.57zm-2.62 4.48h8.19v-1.7h-8.19zm-2.65 4.47h10.84v-1.7h-10.84zm-2.78 4.48h13.62v-1.7h-13.62zm10.56-17.91h3.07v-1.52h-3.07zm-13.21 22.39h16.27v-1.7h-16.27zm5.05-23.9.01-.01h-4.56v1.52h3.18l-1.76 2.78h-4.74v1.7h3.66l-1.76 2.78h-5.22v1.7h4.14l-1.76 2.78h-5.7v1.7h4.63l-1.76 2.78h-6.19v1.7h5.11l-1.76 2.78h-6.67v1.7h5.59l-1.63 2.57h1.23l16.4-26.47h-.44zm5.13 0-15.42 26.47h1.59l15.51-26.47zm18.36-12.04h-10.44v1.66h10.44zm-.46 11.14h-9.99v-8.53h9.99zm-6.14-5.71h-1.36v3.74h1.36zm1.84 0h-1.36v3.74h1.36zm1.84 0h-1.36v3.74h1.36zm-7.46 6.6v1.52h3.25l-.4 2.78h-2.85v1.7h5.92l-.4 2.78h-5.52v1.7h8.59l-.4 2.78h-8.19v1.7h11.26l-.4 2.78h-10.86v1.7h13.93l-.4 2.78h-13.53v1.7h16.61l-.37 2.57h4.27l-15.43-26.48h-5.08zm32.38 22.21h-8.28l-1.76-2.78h6.72v-1.7h-7.8l-1.76-2.78h6.24v-1.7h-7.32l-1.76-2.78h5.76v-1.7h-6.83l-1.76-2.78h5.27v-1.7h-6.35l-1.76-2.78h4.79v-1.52h-6.57l16.4 26.48h1.2l-1.63-2.57h7.21v-1.69z"/><path d="m318.63 18.11h-.54c.09 5.48.49 13.12 1.79 20.56h-.35c-.11-.83-.21-1.53-.31-2.18-.25-1.76-.43-3.02-.6-4.88l-.04-.49h-1.25l-.04.49c-.17 1.85-.35 3.12-.6 4.87-.09.65-.19 1.36-.31 2.19h-.35c1.3-7.44 1.7-15.08 1.79-20.56h-.54c-.09 5.59-.51 13.46-1.9 21.1h1.47c.46-3.42.73-4.87.97-7.55h.26c.24 2.68.51 4.13.97 7.55h1.47c-1.39-7.63-1.8-15.5-1.89-21.1z"/><path d="m315.44 42.21h5.03l2.98 11.33h.56l-3.13-11.87h-5.85l-3.13 11.87h.56z"/><path d="m319.21 43.84h-2.51l-2.54 9.7h.56l2.39-9.16h1.69l2.39 9.16h.56z"/><path d="m318.24 55.72h3.27v1.81h-3.27z"/><path d="m314.4 55.72h3.27v1.81h-3.27z"/><path d="m310.55 54.43h14.8v.75h-14.8z"/><path d="m322.08 55.72h3.27v1.81h-3.27z"/><path d="m310.55 55.72h3.27v1.81h-3.27z"/><path d="m309.47 53.31v5.31h16.97v-5.31zm16.43 1.87v.24 2.65h-15.88v-2.65-.24-1.29h15.88z"/><path d="m315.19 40.27h2.48v.83h-2.48z"/><path d="m318.24 40.27h2.52v.83h-2.52z"/><path d="m314.1 39.12v3.07h7.74v-3.07zm7.2 2.53h-6.66v-1.92h6.66z"/><path d="m318.28 14.34-.25-6.42h-.15l-.25 6.42h-.45v.81h1.55v-.81z"/><path d="m316.84 15.73v2.57h2.23v-2.57zm1.76 2.03h-1.29v-1.49h1.29z"/><path d="m314.68 49.41.87-3.32c-.26.24-.51.48-.75.71l-.88 3.33c.25-.24.5-.48.76-.72z"/><path d="m322.27 51.21c-.25-.23-.5-.47-.76-.72l.69 2.65h.58z"/><path d="m321.25 49.49c.26.25.51.49.76.72l-.88-3.33c-.24-.23-.49-.47-.75-.71z"/><path d="m313.66 51.12-.53 2.01h.58l.71-2.73c-.26.25-.51.49-.76.72z"/><path d="m320.87 45.89-.82-3.13h-4.19l-.8 3.05c.24-.23.49-.47.75-.71l.47-1.8h3.36l.49 1.88c.25.24.5.48.74.71z"/><path d="m306.9 69.05c-.46.99-.93 2.01-1.4 3.05.62-.48 1.27-1 1.96-1.54-.18-.5-.37-1-.56-1.51z"/><path d="m308.63 72.15c.31-.97.68-1.87 1.1-2.7-.56.44-1.1.87-1.63 1.29.19.51.38 1 .53 1.41z"/><path d="m305.4 72.85h2.92c-.21-.56-.43-1.15-.66-1.77-.8.63-1.55 1.22-2.26 1.77z"/><path d="m307.63 67.93h2.84c-.2-.55-.42-1.12-.64-1.73-.78.62-1.51 1.2-2.2 1.73z"/><path d="m307.9 70.2c.71-.56 1.44-1.14 2.2-1.73h-2.83c.16.45.39 1.08.63 1.73z"/><path d="m310.27 65.86c.19.51.37.99.54 1.46.47-1.01.92-2 1.37-2.97-.65.51-1.29 1.02-1.91 1.51z"/><path d="m313.79 63.2h3.61c-.43-.67-.88-1.39-1.35-2.14-.8.75-1.56 1.47-2.26 2.14z"/><path d="m317.67 62.61v-3.09c-.41.39-.82.78-1.22 1.16.43.67.83 1.32 1.22 1.93z"/><path d="m311.95 66.16c1.01-1.11 2.13-1.93 3.34-2.43h-2.22c-.37.79-.74 1.6-1.12 2.43z"/><path d="m310.01 63.2h2.56c-.19-.5-.38-1.02-.58-1.56-.69.55-1.36 1.07-1.98 1.56z"/><path d="m314.23 59.87c-.61.48-1.21.96-1.8 1.42.18.48.35.94.52 1.38.45-.98.88-1.93 1.28-2.8z"/><path d="m330.43 72.12c-.49-1.05-.96-2.09-1.43-3.1-.19.52-.38 1.03-.57 1.53.7.55 1.37 1.08 2 1.57z"/><path d="m314.26 59.16h-2.62c.2.55.4 1.08.59 1.6.66-.52 1.34-1.05 2.03-1.6z"/><path d="m317.25 59.16h-1.76c.22.35.44.7.66 1.05.36-.35.73-.7 1.1-1.05z"/><path d="m309.09 64.25c-.41.89-.85 1.86-1.31 2.87.58-.46 1.2-.94 1.84-1.45-.17-.46-.34-.93-.53-1.42z"/><path d="m311.43 59.16h-.02c0 .01-.01.01-.01.02 0 0 .01-.01.01-.01.01-.01.01-.01.02-.01z"/><path d="m312.09 63.73h-2.61c.2.55.4 1.08.59 1.59.65-.51 1.33-1.04 2.02-1.59z"/><path d="m311.22 59.58c-.32.7-.8 1.77-1.4 3.08.62-.48 1.28-1 1.97-1.55-.18-.5-.37-1.01-.57-1.53z"/><path d="m315.75 60.58c-.24-.38-.48-.76-.73-1.15-.46 1-.96 2.1-1.48 3.25.69-.65 1.43-1.35 2.21-2.1z"/><path d="m323.68 64.33c.45.98.92 1.99 1.39 3.01.18-.47.36-.97.55-1.48-.63-.5-1.28-1.01-1.94-1.53z"/><path d="m328.62 68.47h-2.83c.75.6 1.49 1.18 2.2 1.73.24-.65.47-1.28.63-1.73z"/><path d="m326.06 66.21c-.22.6-.44 1.18-.64 1.73h2.84c-.69-.54-1.42-1.12-2.2-1.73z"/><path d="m320.63 63.73c1.17.48 2.27 1.28 3.26 2.34-.37-.8-.73-1.58-1.08-2.34z"/><path d="m310.31 72.01h2.63c.46-2.8 1.3-5.12 2.36-6.59-2.07 1.08-3.85 3.41-4.99 6.59z"/><path d="m320.61 65.41c1.05 1.47 1.89 3.79 2.36 6.59h2.63c-1.14-3.17-2.92-5.5-4.99-6.59z"/><path d="m325.2 58.07h-14.48s-3.6 7.98-7.27 15.86h5.79c1.41-5.68 4.78-9.68 8.71-9.68 3.94 0 7.31 4 8.71 9.68h5.79c-3.65-7.88-7.25-15.86-7.25-15.86zm-7.1 5.66h-.3c-3.94.09-7.43 3.85-8.98 9.67h-4.52c3.09-6.66 6.08-13.27 6.77-14.78h13.78c.68 1.51 3.68 8.12 6.77 14.78h-4.52c-1.57-5.82-5.06-9.58-9-9.67z"/><path d="m319.9 61.05c-.47.75-.92 1.47-1.35 2.14h3.61c-.7-.66-1.46-1.38-2.26-2.14z"/><path d="m328.14 67.15c-.47-1.03-.92-2.01-1.34-2.93-.18.5-.36.98-.54 1.45.66.52 1.29 1.02 1.88 1.48z"/><path d="m326.19 69.47c.41.82.77 1.7 1.08 2.64.15-.4.33-.88.52-1.38-.52-.41-1.05-.83-1.6-1.26z"/><path d="m328.23 71.08c-.23.62-.45 1.21-.66 1.77h2.92c-.71-.55-1.46-1.14-2.26-1.77z"/><path d="m323.38 63.2h2.56c-.62-.49-1.29-1.01-1.98-1.56-.2.54-.39 1.06-.58 1.56z"/><path d="m326.06 62.6c-.54-1.18-1-2.19-1.35-2.98-.19.51-.37 1-.55 1.48.67.53 1.3 1.03 1.9 1.5z"/><path d="m325.82 65.32c.19-.52.39-1.05.59-1.59h-2.61c.69.55 1.36 1.08 2.02 1.59z"/><path d="m324.31 59.16h-2.62c.69.55 1.37 1.08 2.02 1.6.2-.52.39-1.05.6-1.6z"/><path d="m323.51 61.29c-.62-.49-1.27-1-1.92-1.52.42.93.89 1.94 1.37 3 .18-.48.36-.97.55-1.48z"/><path d="m318.24 59.47v3.2c.4-.63.82-1.3 1.26-2-.41-.39-.83-.79-1.26-1.2z"/><path d="m320.45 59.16h-1.76c.37.36.74.7 1.1 1.05.22-.35.44-.7.66-1.05z"/><path d="m322.26 62.54c-.49-1.08-.96-2.1-1.39-3.04-.23.37-.46.73-.68 1.08.74.7 1.43 1.35 2.07 1.96z"/><path d="m318.83 26.45-1.98 2.01c.01.1.01.2 0 .3 0 .03-.01.06-.02.09l.19.19 1.85-1.88c-.05-.23-.06-.47-.04-.71z"/><path d="m318.59 22.44-1.44 1.46c.01.1.01.2 0 .3 0 .03-.01.06-.02.09l.19.19 1.36-1.38c-.07-.22-.09-.45-.09-.66z"/><path d="m318.91 29.01c-.07-.32-.15-.64-.21-.96l-1.58-1.6c.02.24.01.48-.05.7z"/><path d="m318.51 24.26c-.01-.21.01-.42.05-.62l-1.19-1.21c0 .21-.02.44-.09.66l1.23 1.25c0-.02 0-.05 0-.08z"/><path d="m388.34 55.07-.06-1.33c0-.02-.16-.04-.46-.06l-.04-.94s-8.82-1.49-22.1-1.45c-.5 0-1.33-3.61-2.12-5.72-.65-.03-1.3-.05-1.97-.07-13.47-.34-24 1.21-27.71 2.73l-.22 5.47c-.3.02-.46.05-.46.07l-.05 1.28c0 .07 13.75.16 28.02.16 13.29.01 27.18-.07 27.17-.14zm-53.44-1.43c-.49.02-.88.04-1.16.07l.1-2.33c.02-.55.26-1.21.56-1.52.35-.35.66-.09.63.64zm3.78-.13c-1.19.03-2.21.06-3.03.1l.11-2.87c.03-.68.59-1.5 1.36-1.87.9-.43 1.72-.11 1.69.79zm4.87-.1c-1.32.02-2.53.05-3.62.07l.11-3.58c.03-.85.76-1.74 1.72-1.99 1.04-.28 1.93.28 1.9 1.28zm5.76-.08c-1.27.01-2.48.03-3.62.04l.09-4.1c.02-.98.79-1.89 1.76-2.05 1.02-.16 1.86.56 1.84 1.62zm6.68-.05c-1.38.01-2.72.01-4.01.02l.06-4.52c.01-1.08.89-2 1.98-2.07 1.11-.07 2.01.77 2 1.89zm2.71 0 .01-4.67c0-1.11.94-2.01 2.1-2.01s2.1.9 2.1 2.01l.02 4.66c-.58 0-1.17 0-1.77 0-.83 0-1.65 0-2.46.01z"/><path d="m333.2 72.01.11-4.9c.05-1.34.36-2.42.67-2.42s.53 1.08.48 2.42l-.1 4.9h.9l.08-4.31c.05-1.34.79-2.42 1.65-2.42s1.52 1.08 1.48 2.42l-.07 4.31h1.28l.05-3.97c.04-1.34.86-2.43 1.82-2.43s1.71 1.08 1.68 2.43l-.04 3.97h2.22l.03-3.52c.03-1.34.88-2.43 1.89-2.43s1.82 1.09 1.8 2.43l-.02 3.52h2.78l.01-3.22c.02-1.35.92-2.43 2.01-2.43s1.97 1.09 1.96 2.43l-.01 3.22h2.8v-3.09c0-1.35.97-2.43 2.16-2.43s2.16 1.09 2.17 2.43v3.09h2.69l-.01-3.22c-.01-1.35.87-2.43 1.96-2.43s1.99 1.09 2.01 2.43l.01 3.22h2.78l-.02-3.52c-.02-1.34.78-2.43 1.8-2.43s1.86 1.09 1.89 2.43l.03 3.52h2.22l-.04-3.97c-.03-1.34.72-2.43 1.68-2.43s1.78 1.08 1.82 2.43l.05 3.97h1.28l-.07-4.31c-.04-1.34.62-2.42 1.48-2.42s1.6 1.08 1.65 2.42l.08 4.31h.9l-.1-4.9c-.05-1.34.16-2.42.48-2.42s.62 1.08.68 2.42l.11 4.9h.16l-.22-7.51c-2.74.71-15.13 1.42-27.09 1.42-12.83 0-25.22-.81-27.95-1.52l-.22 7.61z"/><path d="m388.56 62.4c-.11.02-.23.04-.37.06l-.28-6.76c-3.14.06-15.16.12-26.74.12-12.42 0-24.45-.07-27.59-.13l-.27 6.69c-.13-.02-.26-.04-.37-.06l-.05 1.22c-.03.77 13.85 1.8 28.28 1.8 13.45 0 27.47-.92 27.43-1.7zm-53.76-3.97-.16 4.12c-.44-.05-.82-.09-1.14-.14l.16-3.98c.05-1.15.34-2.07.65-2.07.32-.01.53.92.49 2.07zm3.82 4.43c-1.17-.07-2.21-.15-3.09-.23l.16-4.2c.04-1.15.77-2.07 1.61-2.07.85 0 1.5.93 1.47 2.07zm4.73.25c-1.24-.05-2.4-.11-3.47-.17l.14-4.51c.04-1.15.83-2.07 1.78-2.07s1.7.93 1.67 2.07zm5.86.21c-1.26-.04-2.49-.07-3.66-.12l.11-4.77c.03-1.15.86-2.07 1.86-2.07s1.8.93 1.78 2.07zm6.69.13c-1.34-.02-2.65-.04-3.94-.07l.07-4.96c.02-1.15.9-2.07 1.98-2.07s1.94.93 1.93 2.07zm5.28.03c-.84 0-1.68 0-2.51-.01l.02-5.05c0-1.15.96-2.07 2.13-2.07s2.13.93 2.13 2.07l.02 5.05c-.6.01-1.19.01-1.79.01zm4.45-.02-.04-5.03c-.01-1.15.86-2.07 1.93-2.07 1.08 0 1.96.93 1.98 2.07l.07 4.97c-1.3.03-2.61.05-3.94.06zm6.69-.12-.08-4.91c-.02-1.15.78-2.07 1.78-2.07s1.83.93 1.86 2.07l.11 4.8c-1.19.04-2.41.08-3.67.11zm5.86-.19-.12-4.72c-.03-1.15.72-2.07 1.67-2.07s1.75.93 1.78 2.07l.14 4.56c-1.08.05-2.24.11-3.47.16zm4.73-.24-.15-4.49c-.04-1.15.62-2.07 1.47-2.07s1.57.93 1.61 2.07l.16 4.27c-.88.08-1.92.15-3.09.22zm3.98-.3-.16-4.18c-.04-1.15.17-2.07.49-2.07s.61.93.65 2.07l.17 4.05c-.32.04-.71.09-1.15.13z"/><path d="m363.39 44.45c.36-.05-.14-2.25-.88-2.3-.14 0-.29 0-.44 0-.05-.07-.09-.13-.13-.16-.64-.48-2.75.15-3.12-.57-1.02-1.93-1.53-4.12-1.96-5.59-11.32 1-19.38 4.7-22.77 7.93.03-.18.09-.49.16-.56 3.26-3.29 11.41-7.13 22.92-8.01-.24-.75-.47-1.22-.76-1.21-12.46 1.11-21.45 5.94-22.67 9.43-.15.43.33.48.33.48l-.13 3.09c-.24.24-.38.47-.39.69l-.02.37c2.74-1.61 13.54-3.62 27.63-3.62.76.01 1.5.02 2.23.03zm-23.58-1.07-1.63.57.05-1.55c.02-.54.4-1.11.85-1.27.45-.15.8.16.78.7zm8.19-1.74-2.11.36.04-1.91c.02-.67.5-1.29 1.08-1.39s1.04.37 1.03 1.04z"/><path d="m397.55 69.25h-2.63c-.34 0-.62.28-.62.62v2.13h3.88v-2.12c-.01-.35-.29-.63-.63-.63z"/><path d="m412.95 69.25h-2.63c-.34 0-.62.28-.62.62v2.13h3.88v-2.12c-.01-.35-.29-.63-.63-.63z"/><path d="m395.35 53.94h1.79v.53h-1.79z"/><path d="m410.87 53.94h1.79v.53h-1.79z"/><path d="m416.76 58.43h-25.51c-.31 0-.57.25-.57.57 0 .31.25.57.57.57h25.51c.31 0 .57-.25.57-.57-.01-.31-.26-.57-.57-.57z"/><path d="m419.54 45.62c-13.81 2.61-16.85 2.51-31.07 0-.82-.15-1.28.41-1.08.9l1.12 2.79c.17.42.88.75 1.59.75h27.79c.71 0 1.43-.33 1.59-.75l1.12-2.79c.22-.49-.24-1.06-1.06-.9z"/><path d="m397.1 56.98v-2.28h-1.7v2.2c.59.03 1.16.06 1.7.08z"/><path d="m412.61 56.92v-2.21h-1.7v2.29c.54-.03 1.11-.06 1.7-.08z"/><path d="m410.91 59.95h1.7v8.93h-1.7z"/><path d="m395.4 59.95h1.7v8.93h-1.7z"/><path d="m391.49 57.32.85.58c.13.09.66.16 1.2.16h20.93c.54 0 1.07-.07 1.2-.16l.85-.58c.15-.1-.2-.22-.81-.19-10.4.54-12.69.52-23.4 0-.62-.02-.97.09-.82.19z"/><path d="m390.11 50.66c.25.29.78.5 1.32.5h25.15c.54 0 1.07-.21 1.32-.5z"/><path d="m414.04 53.08.42-1.49h-20.92l.44 1.53c.1.34.7.61 1.35.61l17.36-.04c.65 0 1.25-.27 1.35-.61z"/><path d="m195.08 40.76c24.04.01 20.14-1 20.14-1s-9.81-1.45-14.61-4.02c-3.01 0-7.7 0-11.05 0-4.24 2.9-14.61 4.01-14.61 4.01s-4.13 1 20.13 1.01z"/><path d="m208.5 49.16v-7.34c-3.01.16-7.32.27-13.49.27-6.08 0-10.35-.1-13.36-.25v7.31h6.78v-.5h-1.89v-.66l1-1.01h1.88l1.02 1.03v.33c.31-.22.52-.54.75-.9s.5-.76.91-1.06h-1.15v-.68l.98-.98h1.96l.97.97v.26h.51v-.24l.99-.99h1.96l.96.96v.7h-1.08c.49.32.83.76 1.13 1.16.16.21.3.4.46.57v-.08l1.04-1.04h1.88l.98.99v.68h-2.02c.02.07.03.14.03.21v.28zm-22.46-.51h-3.9v-.67l.99-1h1.88l1.03 1.04zm0-2.27h-3.9v-.71l.95-.96h1.96l.99 1zm0-2.26h-3.9v-.75l.91-.92h2.04l.95.96zm4.41 2.27h-3.9v-.7l.96-.97h1.96l.98.99zm0-2.27h-3.9v-.74l.93-.93h2.04l.94.95zm4.41 0h-3.9v-.72l.94-.94h2.04l.93.93zm4.41 0h-3.9v-.71l.95-.95h2.04l.92.92zm4.91-.69.97-.98h2.03l.89.9v.77h-3.9zm0 2.31 1.01-1.02h1.96l.93.94v.73h-3.9zm0 2.31 1.05-1.06h1.88l.97.98v.69h-3.9zm-4.41-4.63.96-.97h2.03l.91.91v.76h-3.9zm0 2.97v-.66l1-1h1.96l.95.95v.72z"/><path d="m223.96 53.7s-9.06-.57-14.51-3.59c-1.07 0-4.28 0-8.2 0v1.84l-.46-.01c-.1 0-.2-.01-.3-.01-.12-.01-.22-.01-.29-.01-1.1 0-1.62-.55-2.08-1.03-.34-.36-.63-.66-1.16-.77-1.22 0-2.45 0-3.67 0-.41.1-.61.34-.87.66-.41.51-.93 1.14-2.37 1.14-.08 0-.59-.01-.75-.01h-.45v-1.79c-3.8 0-6.93 0-8.08 0-4.47 2.58-14.51 3.58-14.51 3.58s7.36.9 28.99.91c21.42-.02 28.71-.91 28.71-.91z"/><path d="m196.67 46.85h-3.12c-2.37 0-1.58 2.69-4.26 2.73v1.31c.3 0 .57.01.74.01 2.38 0 1.67-1.85 3.73-1.85h2.7c2.06 0 1.86 1.85 3.73 1.85.14 0 .39.02.61.02v-1.35c-1.96-.16-1.82-2.71-4.13-2.72z"/><path d="m215.18 55.75-40.27-.02v5.28h-.46v11.25h.46v.06h.07v-8.52h1.82v8.53h2.19v-8.53h1.82v8.53h2.19v-8.53h1.82v8.53h3.38v-7.78h13.45v7.79h3.76v-8.54h1.82v8.54h2.19v-8.54h1.82v8.54h2.19v-8.54h1.82v8.49h.29v-11.25h-.35zm-36.53 7.36h-2.75v-1.38l.33-.33h2.01l.4.4zm.62-2.09h-4.02v-.73l.98-.99h2.01l1.02 1.03zm.01-2.1h-4.02v-.73l.98-.99h2.01l1.02 1.03zm3.87 4.19h-3.04v-1.16l.55-.56h2.01l.47.47zm.55-2.09h-4.02v-.73l.98-.99h2.01l1.02 1.03zm0-2.1h-4.02v-.73l.98-.99h2.01l1.02 1.03zm4.43 4.19h-3.52v-1.23l.49-.49h2.01l1.02 1.03zm0-2.09h-4.02v-.73l.98-.99h2.01l1.02 1.03zm0-2.1h-4.02v-.73l.98-.99h2.01l1.02 1.03zm4.43 4.2h-4.02v-.73l.98-.99h2.01l1.02 1.03zm0-2.1h-4.02v-.73l.98-.99h2.01l1.02 1.03zm0-2.09h-4.02v-.73l.98-.99h2.01l1.02 1.03zm4.43 4.19h-4.02v-.73l.98-.99h2.01l1.02 1.03zm0-2.1h-4.02v-.73l.98-.99h2.01l1.02 1.03zm0-2.09h-4.02v-.73l.98-.99h2.01l1.02 1.03zm4.43 4.19h-4.02v-.73l.98-.99h2.01l1.02 1.03zm0-2.09h-4.02v-.73l.98-.99h2.01l1.02 1.03zm0-2.1h-4.02v-.73l.98-.99h2.01l1.02 1.03zm3.94 4.19h-3.53v-.73l.98-.99h2.01l.54.54zm.49-2.09h-4.02v-.73l.98-.99h2.01l1.02 1.03zm0-2.1h-4.02v-.73l.98-.99h2.01l1.02 1.03zm3.72 4.19h-2.75v-1.29l.42-.42h2.01l.31.32zm.71-2.09h-4.02v-.73l.98-.99h2.01l1.02 1.03zm0-2.1h-4.02v-.73l.98-.99h2.01l1.02 1.03zm3.78 4.2h-3.04v-1.07l.64-.65h2.01l.38.38zm-3.03-1.71v-.01h.01s-.01.01-.01.01zm3.67-.39h-4.02v-.73l.98-.99h2.01l1.02 1.03zm.01-2.09h-4.02v-.73l.98-.99h2.01l1.02 1.03z"/><path d="m433.18 16.54v-1.29c-.2.05-.35.38-.39.81-.81-1.05-2.68-3.78-3.62-7.63 0-.01-.02-.01-.02-.02-.01-.79-.06-1.39-.13-1.39-.06 0-.12.6-.13 1.4 0 0-.01 0-.01.01-.82 3.98-2.78 6.66-3.61 7.66-.03-.44-.19-.8-.39-.84v1.29s-.01.01-.01.01h.01v.66h8.3z"/><path d="m435.39 26.15-2.71-4.24h-7.38l-2.71 4.24c-.1-.39-.27-.66-.48-.71v1.46 1.5h13.75v-1.5-1.46c-.2.05-.37.32-.47.71zm-2.33-1.68c.21 0 .43.11.51.27l.48.94h-1.15l-.16-.94c-.03-.16.12-.27.32-.27zm-1.73-2.03c.21 0 .41.11.47.27l.33.94h-1.15l-.01-.94c-.01-.15.16-.27.36-.27zm-1.33 2.3c.02-.16.2-.27.41-.27s.4.11.43.27l.2.94h-1.15zm-1.38-2.03c.03-.16.21-.27.42-.27s.39.11.42.27l.16.94h-1.15zm-1.39 2.03c.03-.16.22-.27.43-.27s.39.11.41.27l.12.94h-1.15zm-1.05-2.03c.05-.16.26-.27.47-.27s.37.11.37.27l-.01.94h-1.15zm-1.61 2.03c.08-.16.3-.27.51-.27s.35.11.32.27l-.16.94h-1.15z"/><path d="m432.79 21.07v-3.1h-7.53v3.1zm-1.13-2.47c0-.18.15-.33.33-.33s.33.15.33.33v1.76c0 .18-.15.33-.33.33s-.33-.15-.33-.33zm-1.5 0c0-.18.15-.33.33-.33s.33.15.33.33v1.76c0 .18-.15.33-.33.33s-.33-.15-.33-.33zm-1.5 0c0-.18.15-.33.33-.33s.33.15.33.33v1.76c0 .18-.15.33-.33.33s-.33-.15-.33-.33zm-1.5 0c0-.18.15-.33.33-.33s.33.15.33.33v1.76c0 .18-.15.33-.33.33s-.33-.15-.33-.33zm-1.5 0c0-.18.15-.33.33-.33s.33.15.33.33v1.76c0 .18-.15.33-.33.33s-.33-.15-.33-.33z"/><path d="m434.02 47.69v2.17c0 .23-.18.41-.41.41s-.41-.18-.41-.41v-2.17h-1.03v2.17c0 .23-.18.41-.41.41s-.41-.18-.41-.41v-2.17h-1.03v2.17c0 .23-.18.41-.41.41s-.41-.18-.41-.41v-2.17h-1.03v2.17c0 .23-.18.41-.41.41s-.41-.18-.41-.41v-2.17h-1.03v2.17c0 .23-.18.41-.41.41s-.41-.18-.41-.41v-2.17h-1.03v2.17c0 .23-.18.41-.41.41s-.41-.18-.41-.41v-2.17h-.54v4.38h11.11v-4.38z"/><path d="m423.98 32.34v-1.51c0-.23.18-.41.41-.41s.41.18.41.41v1.51h1.03v-1.51c0-.23.18-.41.41-.41s.41.18.41.41v1.51h1.03v-1.51c0-.23.18-.41.41-.41s.41.18.41.41v1.51h1.03v-1.51c0-.23.18-.41.41-.41s.41.18.41.41v1.51h1.03v-1.51c0-.23.18-.41.41-.41s.41.18.41.41v1.51h1.03v-1.51c0-.23.18-.41.41-.41s.41.18.41.41v1.51h.52v-3.14h-11.11v3.13h.52z"/><path d="m434.54 69.32v-14.12h-11.11v14.13h11.11zm-1.29-12.5c0-.23.18-.41.41-.41s.41.18.41.41v10.3c0 .23-.18.41-.41.41s-.41-.18-.41-.41zm-1.85 0c0-.23.18-.41.41-.41s.41.18.41.41v10.3c0 .23-.18.41-.41.41s-.41-.18-.41-.41zm-1.84 0c0-.23.18-.41.41-.41s.41.18.41.41v10.3c0 .23-.18.41-.41.41s-.41-.18-.41-.41zm-1.85 0c0-.23.18-.41.41-.41s.41.18.41.41v10.3c0 .23-.18.41-.41.41s-.41-.18-.41-.41zm-1.84 0c0-.23.18-.41.41-.41s.41.18.41.41v10.3c0 .23-.18.41-.41.41s-.41-.18-.41-.41zm-1.85 0c0-.23.18-.41.41-.41s.41.18.41.41v10.3c0 .23-.18.41-.41.41s-.41-.18-.41-.41z"/><path d="m422.5 52.81h12.98v1.61h-12.98z"/><path d="m422.5 70.28h12.98v1.61h-12.98z"/><path d="m422.14 33.09v13.68h13.68v-13.68zm6.74 10.98c-2.3 0-4.17-1.87-4.17-4.17s1.87-4.17 4.17-4.17 4.17 1.87 4.17 4.17-1.86 4.17-4.17 4.17z"/><path d="m429.15 40.31-.03.12-.4-.13h-.15v-.05l-.22-.07 1.23-2.88.22.07-.54 2.42 3.15.28c0-.06.01-.11.01-.17 0-1.95-1.58-3.53-3.53-3.53s-3.53 1.58-3.53 3.53 1.58 3.53 3.53 3.53c1.81 0 3.29-1.36 3.51-3.11z"/><path d="m230.89 30.87c0 .7-.57 1.28-1.28 1.28-.7 0-1.28-.57-1.28-1.28v-1.28c0-.7.57-1.28 1.28-1.28.7 0 1.28.57 1.28 1.28z"/><path d="m228.91 31.15h1.4v2.83h-1.4z"/><path d="m234.07 53.82c-.5-.72-1.28-1.27-2.37-1.66v-18.97l1.68.2z"/><path d="m227.74 32.87c.19-.05.41-.09.66-.12v-.88c-.21-.27-.34-.6-.34-.97v-1.4c0-.85.7-1.55 1.55-1.55s1.55.7 1.55 1.55v1.4c0 .37-.13.7-.34.97v.88c.25.03.47.07.66.12l.08.02-.13-3.57c-.03-.87-.85-1.56-1.81-1.56-.97 0-1.78.69-1.81 1.56l-.13 3.57z"/><path d="m231.26 34.54v-1.36c-.39-.1-.98-.16-1.65-.16-.66 0-1.26.06-1.65.16v1.36c0 .32.26.58.58.58h2.14c.32-.01.58-.27.58-.58z"/><path d="m230.93 37.65c-2.31 0-4.55-.41-6.48-1.19-1.77-.71-3.19-1.69-4.13-2.85l7.2-.48v1.45c0 .5.41.91.91.91h2.35c.17 0 .34-.05.48-.14v2.28c-.12.01-.23.02-.33.02z"/><path d="m231.26 52c-.97-.3-2.01-.46-3.01-.62-2.07-.33-3.86-.61-3.86-1.94 0-1.17.01-3.35.02-5.47.01-1.86.01-3.62.01-4.46v-.06l-.04-.04c-1.21-1.15-4.82-1.29-6.39-1.3-1.62-2-1.98-3.39-1.97-4.23l3.79-.25c.61.82 1.45 1.56 2.49 2.21 2.31 1.43 5.37 2.21 8.63 2.21h.34v13.95z"/><path d="m233.76 33.41.22 6.2c.65-.33 3.19-1.48 6.91-1.48 1.62-2 1.98-3.39 1.97-4.23.01 0-6.26-.02-9.1-.49z"/><path d="m215.69 33.89-.5-.06c-.43 0-.45-.79-1.11-.74l-1.5.07c-.1 0-.22.14-.29.32l-1.18.04c-.21.01-.31.36-.25.74.05.32.22.58.38.62l2.35.49c.26.06.64-.07.96-.34l1.33.13c-.14-.51-.19-.94-.19-1.27z"/><path d="m243.27 33.89.5-.06c.43 0 .45-.79 1.11-.74l1.5.07c.1 0 .22.14.29.32l1.18.04c.21.01.31.36.25.74-.05.32-.22.58-.38.62l-2.35.49c-.26.06-.64-.07-.96-.34l-1.33.13c.14-.51.19-.94.19-1.27z"/><path d="m234.33 63.24-.32-8.95-.2-.29c-.46-.67-1.19-1.17-2.21-1.54l-.2-.07-.22-.07c-.94-.29-1.97-.45-2.97-.61-1.3-.2-2.55-.4-3.33-.89l-.44 12.43h9.89z"/><path d="m223.03 63.82h12.9v1.74h-12.9z"/><path d="m222.2 66.29h14.57v5.68h-14.57z"/><path d="m85.88 41.73h-41.6v1.86c0 .36.29.65.65.65h40.3c.36 0 .65-.29.65-.65z"/><path d="m42.02 40.67h46.13c.36 0 .65-.29.65-.65v-1.1l-23.71-8.29-23.71 8.29v1.1c-.01.36.28.65.64.65z"/><path d="m44.28 64.87v1.14h41.59v-1.14c0-.36-.29-.65-.65-.65h-40.3c-.35 0-.64.29-.64.65z"/><path d="m89.02 67.64c0-.36-.29-.65-.65-.65h-46.58c-.36 0-.65.29-.65.65v1.14h47.88z"/><path d="m91.51 70.02h-52.86c-.36 0-.65.29-.65.65v1.14h54.15v-1.14c.01-.36-.28-.65-.64-.65z"/><path d="m44.99 62.8v.13h4.03v-.13c0-.59-.4-1.08-.95-1.22v-14.57c.55-.14.95-.64.95-1.22v-.6h-4.03v.6c0 .59.4 1.08.95 1.22v14.57c-.55.14-.95.64-.95 1.22z"/><path d="m50.14 62.8v.13h4.03v-.13c0-.59-.4-1.08-.95-1.22v-14.57c.55-.14.95-.64.95-1.22v-.6h-4.03v.6c0 .59.4 1.08.95 1.22v14.57c-.55.14-.95.64-.95 1.22z"/><path d="m55.29 62.8v.13h4.03v-.13c0-.59-.4-1.08-.95-1.22v-14.57c.55-.14.95-.64.95-1.22v-.6h-4.03v.6c0 .59.4 1.08.95 1.22v14.57c-.54.14-.95.64-.95 1.22z"/><path d="m60.45 62.8v.13h4.03v-.13c0-.59-.4-1.08-.95-1.22v-14.57c.55-.14.95-.64.95-1.22v-.6h-4.03v.6c0 .59.4 1.08.95 1.22v14.57c-.55.14-.95.64-.95 1.22z"/><path d="m65.6 62.8v.13h4.03v-.13c0-.59-.4-1.08-.95-1.22v-14.57c.55-.14.95-.64.95-1.22v-.6h-4.03v.6c0 .59.4 1.08.95 1.22v14.57c-.54.14-.95.64-.95 1.22z"/><path d="m70.76 62.8v.13h4.03v-.13c0-.59-.4-1.08-.95-1.22v-14.57c.54-.14.95-.64.95-1.22v-.6h-4.03v.6c0 .59.4 1.08.95 1.22v14.57c-.55.14-.95.64-.95 1.22z"/><path d="m75.91 62.8v.13h4.03v-.13c0-.59-.4-1.08-.95-1.22v-14.57c.54-.14.95-.64.95-1.22v-.6h-4.03v.6c0 .59.4 1.08.95 1.22v14.57c-.55.14-.95.64-.95 1.22z"/><path d="m81.07 62.8v.13h4.03v-.13c0-.59-.4-1.08-.95-1.22v-14.57c.55-.14.95-.64.95-1.22v-.6h-4.03v.6c0 .59.4 1.08.95 1.22v14.57c-.55.14-.95.64-.95 1.22z"/><path d="m138.46 21.15-24.94 34.07-14.69-20.04-15.49 21.21c.07.34.12.67.16 1.01l15.33-20.99.81 1.1 8.61 24.9-7.01 9.58-24.64.02c-.43.26-.87.5-1.32.73l26.32-.02c0-.01 0-.02 0-.03l74.56.02zm9.95 28.87h-4.36v-3.82h3.04zm-1.49-4.33h-6.44v-3.82h5.12zm-9.99.5h6.75v3.82h-6.75zm-3.57-.51v-3.82h6.75v3.82zm10.7-8.15h.05l1.32 3.82h-1.37zm-29.74 17.82h.27v3.82h-3.07zm11.12 8.15h-6.75v-3.82h6.75zm3.55.51v3.82h-6.75v-3.82zm-7.12 0v3.82h-6.75v-3.82zm-.15-4.84h-6.75v-3.82h6.75zm-3.4.51v3.82h-6.75v-3.82zm-7.17 0h.05v3.82h-2.85zm-3.16 4.33h6.75v3.82h-6.75zm-.36.48v3.33h-2.44zm-2.78 3.8h28.85v-.45h-4.34v-3.82h5.9v-.51h-9.44v-3.82h4.8c-.03-.18-.04-.34-.03-.51h-8.5v-3.82h11.92c-.03-.18-.04-.34-.03-.51l-19.28-.01 23.76-32.46.8 1.1 4.67 13.55h-7.51v.51h7.27v3.82h-14.73v.51h4.03v3.82h-4.03v.51h7.61v3.82h-3.76v.51l15.78.01 7.39 21.45-53.81-.02z"/><path d="m492.27 52.47h-10.55v-5.67l3.37 1.37h3.89l3.29-1.34zm-16.9 1.53-.05.26h23.32l-.05-.26c-.1-.49-.7-.88-1.34-.88h-20.54c-.64 0-1.24.39-1.34.88zm-2.51-7.56c.78-9.66 7.23-14.65 9.77-14.84.85-.18 1.94-.16 2.56-.22.13-.01.29-.03.46-.03l-.25.43.99 3.72h1.37l.99-3.72-.25-.43c.13.01.26.02.37.03.62.06 1.71.04 2.55.22 2.54.19 8.99 5.17 9.77 14.84.21 2.53-4.47 3.53-4.03 6.04h-.23c-.66-2.5 3.93-3.5 3.51-6.04-1.11-6.65-4.67-11.12-7.62-13.33.04.23.06.46.06.67v3.05.71c.38-.37.83-.56 1.29-.48.92.16 1.47 1.37 1.23 2.71-.24 1.33-1.17 2.28-2.09 2.11-.15-.03-.29-.09-.43-.18v2.7c0 .68-.27 1.5-.59 1.83l-3.43 1.4h-3.68l-3.43-1.4c-.33-.34-.59-1.16-.59-1.83v-2.57c-.04.01-.08.03-.12.04-.92.16-1.86-.78-2.09-2.11-.24-1.33.31-2.54 1.23-2.71.34-.06.68.03.98.24v-1.72-1.79c0-.21.02-.44.06-.67-2.94 2.21-6.5 6.68-7.61 13.33-.42 2.53 4.17 3.53 3.51 6.03h-.23c.45-2.5-4.23-3.5-4.03-6.03zm16.44-2.4s-.9.27-2.31.27c-1.31 0-2.39-.27-2.39-.27 1.19 1.57 3.55 1.68 4.7 0zm0-.01c-.8-.21-1.36-.6-2.35-.4-.98-.2-1.55.19-2.35.4h.02s1.33-.17 2.33-.17c1.09 0 2.33.17 2.33.17zm-1.48-4.6c.7.13 2.73.54 4.02-.21.75-2.25-1.71-3.17-3.56-2.5-.55.19-.55 1.74-.46 2.71zm-2.08 3.26h2.51l-1.24-3.55zm-3.65-4.15c.07.19.14.4.18.62.01.03 0 .06.01.09 1.29.71 3.27.32 3.96.18.09-.97.08-2.52-.46-2.72-1.64-.59-3.78.09-3.69 1.83zm11.32 6.26c-.01.06-.01.12-.02.19-.01.05-.02.1-.03.15s-.02.1-.03.15c-.01.06-.03.11-.05.17-.01.04-.02.07-.03.11-.02.06-.04.12-.06.18-.01.03-.02.05-.03.08-.03.07-.05.13-.08.19-.01.02-.02.03-.02.05-.03.07-.07.13-.1.19 0 .01-.01.02-.01.02-.04.06-.08.13-.12.18v6.01h3.58c-.31-1.52.93-2.61 1.9-3.45.92-.79 1.78-1.54 1.62-2.49-1.1-6.59-4.55-10.5-6.48-12.22v2.27c.17-.05.34-.08.51-.08h.02c.09 0 .17.01.26.02h.04c.38.07.73.27 1.02.57.17.18.32.4.43.65.28.61.36 1.36.22 2.11-.27 1.49-1.28 2.58-2.42 2.58-.03 0-.06 0-.09 0v1.97c0 .1-.01.2-.01.3-.01.03-.02.07-.02.1zm-12.23 7.67v-6.12c-.16-.24-.29-.55-.39-.88 0-.02-.01-.03-.01-.05-.04-.16-.08-.31-.1-.47 0-.03-.01-.05-.01-.08-.02-.16-.04-.33-.04-.48v-1.98c-1.05-.12-1.96-1.16-2.21-2.56-.03-.19-.05-.38-.06-.56-.02-.56.08-1.09.28-1.55.3-.67.83-1.11 1.45-1.22.1-.02.2-.03.3-.03h.01c.07 0 .15.01.22.02l-.01-2.2c-1.93 1.73-5.37 5.63-6.47 12.22-.16.95.71 1.7 1.62 2.49.98.85 2.22 1.93 1.9 3.45zm6.29-17.39.57-3.72-.49-1.45h-.97l-.49 1.45.57 3.72zm-5.58 32.88h10.55v-2.06h-10.55zm18.05-3.28h.77l-.3-1.52h-26.85l-.3 1.53h1.13c.39 0 .73.21.91.52h.2c-.04.07-.04.31-.04.54v6.99h-.11 3.04l-.46-6.72c0-.59-.48-1.07-1.07-1.07h-1.15c.19-.17.44-.27.71-.27h1.15c.39 0 .73.21.91.52h.2c-.04.07-.04.43-.04.54v6.99h3.18-.25l-.46-6.72c0-.59-.48-1.07-1.07-1.07h-1.15c.19-.17.44-.27.71-.27h1.15c.39 0 .73.21.91.52h11.01c.19-.32.53-.53.92-.53h1.15c.27 0 .52.1.71.27h-1.15c-.59 0-1.07.48-1.07 1.07l-.46 6.73h2.93v-7c0-.11.02-.22.05-.32-.03-.08-.07-.15-.11-.22h.2c.19-.32.53-.53.92-.53h1.15c.27 0 .52.1.71.27h-1.15c-.59 0-1.07.48-1.07 1.07l-.46 6.73h2.93v-7c0-.11.02-.22.05-.32-.03-.08-.07-.15-.11-.22h.2c.19-.29.53-.51.93-.51zm1.83.28h-1.12c-.59 0-1.07.48-1.07 1.07l-.46 6.73h2.93v-7c0-.11.02-.22.05-.32-.06-.19-.18-.35-.33-.48zm3.56.8c0-.32-.15-.61-.37-.8h-1.13c-.59 0-1.07.48-1.07 1.07l-.46 6.73h3.04zm-23.44 4.94h10.55v-2.06h-10.55zm-8.22-5.73h-1.13c-.14.13-.26.35-.26.79v6.99h2.93l-.46-6.72c-.01-.58-.49-1.06-1.08-1.06zm.02-2.49h26.58l-.41-2.06h-25.76zm.55-2.74h25.49l-.41-2.06h-24.68zm-3.74 5.23h-1.15c-.22.2-.36.48-.36.79v6.99h3.04l-.46-6.72c0-.58-.48-1.06-1.07-1.06zm11.39 7.7h10.55v-1.28h-10.55zm-7.11-15.67h24.41l-.41-2.06h-23.59z"/></g></svg>